<svg width="512" height="512" viewBox="0 0 512 512" fill="none" xmlns="http://www.w3.org/2000/svg">
<rect width="512" height="512" rx="256" fill="#1C1A17"/>
<path d="M431 256.938C431 258.712 430.975 260.487 430.924 262.261H430.721H345.807V258.383H263.883C263.883 257.572 263.908 256.76 263.908 255.975C263.908 255.189 263.908 254.352 263.883 253.567H345.807V249.714H345.933H430.848C430.949 252.122 431 254.53 431 256.938ZM262.438 239.473L342.613 229.613L343.094 233.466L427.755 223.048C426.944 218.891 425.981 214.785 424.891 210.754L341.548 221.02L342.03 224.873L261.475 234.784C261.83 236.356 262.159 237.927 262.438 239.524V239.473ZM258.256 223.961L334.882 204.823L335.82 208.575L417.135 188.271C415.462 184.342 413.662 180.464 411.736 176.687L332.803 196.408L333.741 200.159L256.482 219.474C257.115 220.97 257.698 222.465 258.256 223.986V223.961ZM251.463 209.436L323.095 182.39L324.464 186.015L400.253 157.398C397.795 153.798 395.209 150.3 392.472 146.904L320.028 174.254L321.397 177.879L248.903 205.254C249.79 206.623 250.652 208.017 251.463 209.436ZM242.059 196.002L305.326 163.025L307.101 166.472L377.06 129.997C373.841 126.879 370.495 123.914 367.048 121.049L301.296 155.319L303.071 158.767L238.738 192.301C239.854 193.518 240.969 194.735 242.033 196.002H242.059ZM226.8 181.503L284.085 145.079L286.164 148.349L349.381 108.147C345.401 105.613 341.345 103.255 337.163 101.05L279.447 137.753L281.525 141.023L222.592 178.487C224.037 179.45 225.431 180.464 226.825 181.503H226.8ZM213.264 173.037L261.272 133.672L263.731 136.663L317.798 92.305C313.21 90.5561 308.495 88.9845 303.73 87.6157L255.772 126.955L258.231 129.946L208.473 170.756C210.095 171.466 211.692 172.226 213.264 173.037ZM195.343 166.067L233.263 128.324L235.975 131.062L284.161 83.1799C278.94 82.3181 273.642 81.6844 268.268 81.2788L227.18 122.165L229.892 124.902L189.843 164.749C191.693 165.129 193.518 165.56 195.343 166.067ZM174.381 162.898L204.62 126.246L207.611 128.704L246.976 81C240.994 81.2788 235.088 81.8618 229.284 82.7236L197.929 120.72L200.92 123.178L168.17 162.873C169.083 162.847 170.021 162.822 170.933 162.822C172.099 162.822 173.24 162.822 174.381 162.873V162.898ZM156.257 163.988L179.552 127.944L182.796 130.048L210.957 86.4497C204.519 88.1227 198.233 90.1505 192.099 92.5078L172.277 123.204L175.521 125.308L149.717 165.256C151.872 164.749 154.052 164.318 156.257 163.963V163.988ZM136.131 169.59L152.886 138.184L156.282 140.009L178.462 98.4645C171.339 101.937 164.495 105.866 157.955 110.226L145.206 134.103L148.627 135.928L128.907 172.885C131.239 171.694 133.647 170.604 136.106 169.615L136.131 169.59ZM121.683 176.966L128.806 156.739L132.456 158.031L146.295 118.743C139.274 124.319 132.684 130.403 126.575 136.968L120.618 153.874L124.268 155.167L114.94 181.63C117.12 179.982 119.351 178.436 121.658 176.991L121.683 176.966ZM103.914 191.44L107.057 176.738L110.834 177.549L117.171 147.943C110.505 156.409 104.599 165.509 99.5545 175.116L102.368 175.724L96.5888 200.058C98.8447 197.041 101.303 194.152 103.914 191.44ZM90.8602 208.625V189.158C86.1456 201.604 82.7997 217.091 81 232.275C83.2052 223.859 86.5511 215.925 90.8602 208.625ZM81.1267 280.182C82.9771 293.134 86.2216 305.631 90.7335 317.519V303.147C86.5765 296.049 83.3066 288.344 81.1267 280.182ZM97.1971 312.753L102.241 336.276L99.4277 336.884C104.472 346.516 110.378 355.591 117.044 364.057L110.707 334.451L106.931 335.262L103.737 320.383C101.43 317.95 99.2249 315.415 97.1971 312.728V312.753ZM114.763 330.243L124.142 356.858L120.492 358.151L126.448 375.058C132.557 381.623 139.147 387.706 146.169 393.283L132.329 353.994L128.679 355.287L121.531 334.958C119.224 333.488 116.968 331.941 114.788 330.294L114.763 330.243ZM128.755 339.039L148.526 376.097L145.104 377.922L157.854 401.799C164.394 406.159 171.238 410.088 178.36 413.561L156.181 372.016L152.759 373.841L135.954 342.359C133.495 341.371 131.087 340.255 128.73 339.064L128.755 339.039ZM149.565 346.694L175.395 386.692L172.15 388.796L191.972 419.492C198.106 421.849 204.392 423.877 210.831 425.55L182.669 381.952L179.425 384.056L156.105 347.961C153.9 347.606 151.695 347.175 149.54 346.668L149.565 346.694ZM168.018 349.127L200.768 388.822L197.777 391.28L229.132 429.276C234.936 430.138 240.842 430.721 246.824 431L207.459 383.27L204.468 385.729L174.229 349.076C173.139 349.127 172.023 349.127 170.908 349.127C169.945 349.127 168.956 349.127 167.993 349.076L168.018 349.127ZM189.741 347.251L229.765 387.073L227.053 389.81L268.142 430.696C273.515 430.29 278.813 429.657 284.034 428.795L235.874 380.888L233.136 383.651L195.242 345.933C193.442 346.415 191.592 346.871 189.741 347.251ZM208.397 341.295L258.104 382.079L255.645 385.07L303.603 424.41C308.368 423.041 313.083 421.469 317.671 419.72L263.579 375.362L261.12 378.353L213.163 339.013C211.591 339.825 209.994 340.585 208.372 341.295H208.397ZM222.49 333.538L281.348 370.977L279.269 374.247L336.986 410.95C341.168 408.745 345.249 406.362 349.203 403.853L285.986 363.651L283.908 366.921L226.698 330.547C225.304 331.587 223.91 332.6 222.465 333.564L222.49 333.538ZM238.713 319.749L302.969 353.233L301.195 356.681L366.947 390.951C370.394 388.086 373.74 385.121 376.959 382.003L306.999 345.528L305.225 348.975L242.033 316.049C240.969 317.316 239.879 318.558 238.738 319.749H238.713ZM248.877 306.771L321.27 334.121L319.901 337.746L392.345 365.096C395.057 361.7 397.642 358.202 400.127 354.602L324.337 325.985L322.968 329.609L251.437 302.589C250.626 304.008 249.764 305.402 248.877 306.771ZM256.456 292.577L333.589 311.841L332.651 315.592L411.584 335.313C413.535 331.536 415.335 327.658 417.008 323.729L335.693 303.425L334.755 307.177L258.231 288.065C257.673 289.586 257.065 291.081 256.456 292.577ZM261.475 277.267L341.903 287.152L341.421 291.005L424.764 301.271C425.854 297.215 426.818 293.109 427.629 288.977L342.968 278.559L342.486 282.412L262.438 272.552C262.159 274.149 261.83 275.72 261.475 277.292V277.267Z" fill="#CAC2AF"/>
</svg>
